<?xml version="1.0" encoding="UTF-8"?>
<svg width="752pt" height="752pt" version="1.1" viewBox="0 0 752 752" xmlns="http://www.w3.org/2000/svg">
 <g fill="#ffff79">
  <path d="m539.9 416.61c-0.054688-25.598-0.10547-51.199-0.14844-76.805-54.219 4.3867-108.93 10.137-163.75 19.062-54.82-8.9336-109.54-14.68-163.75-19.062-0.050782 25.602-0.097656 51.207-0.14844 76.812-18.535 2.7812-33.426 20.344-33.422 38.555 0.011719 18.219 14.824 29.062 33.305 25.168-0.03125 15.742-0.058594 31.5-0.09375 47.238 52.07-3.4766 105.34-1.9375 158.74 6.2539 3.582-0.03125 7.1562-0.03125 10.738 0 53.402-8.1875 106.67-9.7344 158.74-6.2539-0.03125-15.75-0.058594-31.5-0.089844-47.25 18.473 3.9023 33.297-6.9453 33.309-25.16 0.007812-18.207-14.887-35.77-33.426-38.559zm-169.27 107.43c-49.805-7.6602-99.492-9.7031-148.23-7.4688 0.03125-13.363 0.0625-26.719 0.09375-40.07 13.348-6.7422 23.121-19.734 23.156-33.461 0.039062-13.719-9.668-24.008-23.023-26.273 0.050782-21.898 0.10547-43.797 0.15234-65.691 48.98 3.7383 98.387 8.8711 147.89 16.738-0.015625 52.07-0.023438 104.15-0.035157 156.23zm10.73 0c-0.011719-52.078-0.019531-104.16-0.03125-156.24 49.5-7.8672 98.906-13 147.89-16.738 0.054688 21.898 0.10547 43.797 0.14844 65.695-13.355 2.2656-23.059 12.555-23.02 26.273 0.039063 13.738 9.8125 26.719 23.156 33.461 0.03125 13.355 0.0625 26.707 0.09375 40.062-48.738-2.2188-98.426-0.17578-148.23 7.4844z"/>
  <path d="m376 354.66c30.809-5.0234 61.59-9.0625 92.27-12.445 0.53125-3.7695 0.91406-7.5938 0.90234-11.523-0.14453-48.09-41.859-87.168-93.172-86.918-51.316-0.25-93.035 38.832-93.172 86.91-0.011719 3.9336 0.36328 7.7539 0.90234 11.523 30.68 3.3906 61.465 7.4336 92.27 12.453z"/>
  <path d="m465.29 295.3c11.539 0.39453 23.066 0.86719 34.586 1.4102-0.011718-3.0391-0.019531-6.0781-0.03125-9.1211-6.7188-0.28516-13.449-0.53906-20.176-0.78125 6.6094-8.8398 13.211-17.758 19.812-26.766-0.003906-2.0859-0.015625-4.1719-0.019531-6.2617-10.793-0.23047-21.586-0.43359-32.387-0.60547 0.011719 2.9883 0.019531 5.9805 0.023437 8.9648 6.0391 0.11719 12.07 0.25781 18.105 0.39453-6.6406 8.9766-13.281 17.871-19.926 26.707 0 2.0234 0.003906 4.0352 0.011719 6.0586z"/>
  <path d="m513.36 267.57c8.6328 0.28516 17.266 0.59766 25.895 0.93359-0.003906-2.707-0.011718-5.418-0.015625-8.1211-4.5-0.14453-8.9961-0.29297-13.496-0.42578 4.4219-6.1172 8.8359-12.293 13.254-18.527 0-1.8398-0.003906-3.6836-0.011719-5.5234-8.1211-0.10938-16.238-0.21875-24.359-0.3125 0.003906 2.6602 0.015625 5.3125 0.019531 7.9727 4.0117 0.070312 8.0273 0.13672 12.043 0.21875-4.4492 6.1992-8.8984 12.344-13.34 18.441 0.003906 1.7812 0.007813 3.5586 0.011719 5.3438z"/>
  <path d="m554.46 238.42c5.4766 0.09375 10.961 0.19141 16.438 0.29688 0-2.3203 0-4.6289-0.003907-6.9453-2.0703-0.023438-4.1445-0.050782-6.2148-0.078126 2.0273-2.9336 4.0586-5.8867 6.0938-8.8555v-4.668h-15.609c0.003907 2.2852 0.003907 4.5664 0.011719 6.8516 1.8047 0.011718 3.6094 0.019531 5.4219 0.03125-2.0469 2.9609-4.0938 5.8945-6.1367 8.8164-0.003907 1.5156 0 3.0352 0 4.5508z"/>
 </g>
</svg>
