<?xml version="1.0" encoding="UTF-8"?>
<svg width="752pt" height="752pt" version="1.1" viewBox="0 0 752 752" xmlns="http://www.w3.org/2000/svg">
 <g>
  <path d="m479.6 257.61c0 57.215-46.383 103.6-103.6 103.6s-103.59-46.383-103.59-103.6c0-57.215 46.379-103.59 103.59-103.59s103.6 46.379 103.6 103.59"/>
  <path d="m376 390.8c-51.023 0-99.961 20.27-136.04 56.352-36.082 36.078-56.352 85.016-56.352 136.04 0 3.9258 1.5586 7.6914 4.3359 10.465 2.7734 2.7773 6.5391 4.3359 10.465 4.3359h355.18c3.9258 0 7.6914-1.5586 10.465-4.3359 2.7773-2.7734 4.3359-6.5391 4.3359-10.465 0-51.023-20.27-99.961-56.352-136.04-36.082-36.082-85.016-56.352-136.04-56.352z"/>
 </g>
</svg>
